<svg width="1440" height="242" viewBox="0 0 1440 242" fill="none" xmlns="http://www.w3.org/2000/svg">
<g opacity="0.5">
<mask id="path-1-outside-1_1950_34184" maskUnits="userSpaceOnUse" x="-3" y="-0.000488281" width="1445" height="261" fill="black">
<rect fill="white" x="-3" y="-0.000488281" width="1445" height="261"/>
<path d="M44.1148 107.655H202.753V5.83501H247.929V255H202.753V153.179H44.1148V255H-1.0615V5.83501H44.1148V107.655ZM505.781 153.179H363.129V107.655H505.781V153.179ZM526.111 255H363.129C356.874 255 350.039 253.899 342.626 251.698C335.212 249.497 328.32 245.906 321.949 240.925C315.694 235.829 310.423 229.284 306.137 221.291C301.967 213.183 299.882 203.278 299.882 191.579V28.5969C299.882 25.4693 300.461 22.5155 301.62 19.7354C302.778 16.9553 304.342 14.5227 306.311 12.4377C308.396 10.3526 310.829 8.73092 313.609 7.57255C316.389 6.41419 319.4 5.83501 322.644 5.83501H526.111V51.0113H345.058V191.579C345.058 197.487 346.622 202.004 349.75 205.132C352.877 208.259 357.453 209.823 363.476 209.823H526.111V255ZM615.421 255H570.245V5.83501H615.421V255ZM881.44 19.3879C883.177 23.4422 883.698 27.7281 883.003 32.2457C882.308 36.6475 880.455 40.4122 877.443 43.5398L728.361 209.823H881.092V255H677.451C673.05 255 668.937 253.783 665.115 251.351C661.408 248.802 658.628 245.501 656.774 241.447C654.805 237.392 654.168 233.164 654.863 228.763C655.674 224.361 657.527 220.538 660.423 217.295L809.853 51.0113H656.774V5.83501H860.763C865.165 5.83501 869.219 7.10921 872.926 9.65761C876.748 12.0902 879.586 15.3336 881.44 19.3879ZM1127.13 153.179H984.476V107.655H1127.13V153.179ZM1147.46 255H984.476C978.221 255 971.387 253.899 963.973 251.698C956.56 249.497 949.667 245.906 943.296 240.925C937.041 235.829 931.771 229.284 927.485 221.291C923.314 213.183 921.229 203.278 921.229 191.579V28.5969C921.229 25.4693 921.809 22.5155 922.967 19.7354C924.125 16.9553 925.689 14.5227 927.658 12.4377C929.743 10.3526 932.176 8.73092 934.956 7.57255C937.736 6.41419 940.748 5.83501 943.991 5.83501H1147.46V51.0113H966.406V191.579C966.406 197.487 967.969 202.004 971.097 205.132C974.225 208.259 978.8 209.823 984.824 209.823H1147.46V255ZM1440.24 235.713C1440.24 238.956 1439.6 241.968 1438.32 244.748C1437.17 247.528 1435.54 249.961 1433.46 252.046C1431.49 254.015 1429.11 255.579 1426.33 256.737C1423.55 257.895 1420.6 258.475 1417.47 258.475C1414.69 258.475 1411.86 257.953 1408.96 256.911C1406.18 255.868 1403.69 254.189 1401.49 251.872L1236.42 79.5071V255H1191.24V25.1218C1191.24 20.4883 1192.52 16.3182 1195.07 12.6114C1197.73 8.78884 1201.09 5.95084 1205.14 4.09746C1209.43 2.35991 1213.83 1.95448 1218.35 2.88117C1222.87 3.69203 1226.75 5.77709 1229.99 9.13635L1395.06 181.327V5.83501H1440.24V235.713Z"/>
</mask>
<path d="M44.1148 107.655H202.753V5.83501H247.929V255H202.753V153.179H44.1148V255H-1.0615V5.83501H44.1148V107.655ZM505.781 153.179H363.129V107.655H505.781V153.179ZM526.111 255H363.129C356.874 255 350.039 253.899 342.626 251.698C335.212 249.497 328.32 245.906 321.949 240.925C315.694 235.829 310.423 229.284 306.137 221.291C301.967 213.183 299.882 203.278 299.882 191.579V28.5969C299.882 25.4693 300.461 22.5155 301.62 19.7354C302.778 16.9553 304.342 14.5227 306.311 12.4377C308.396 10.3526 310.829 8.73092 313.609 7.57255C316.389 6.41419 319.4 5.83501 322.644 5.83501H526.111V51.0113H345.058V191.579C345.058 197.487 346.622 202.004 349.75 205.132C352.877 208.259 357.453 209.823 363.476 209.823H526.111V255ZM615.421 255H570.245V5.83501H615.421V255ZM881.44 19.3879C883.177 23.4422 883.698 27.7281 883.003 32.2457C882.308 36.6475 880.455 40.4122 877.443 43.5398L728.361 209.823H881.092V255H677.451C673.05 255 668.937 253.783 665.115 251.351C661.408 248.802 658.628 245.501 656.774 241.447C654.805 237.392 654.168 233.164 654.863 228.763C655.674 224.361 657.527 220.538 660.423 217.295L809.853 51.0113H656.774V5.83501H860.763C865.165 5.83501 869.219 7.10921 872.926 9.65761C876.748 12.0902 879.586 15.3336 881.44 19.3879ZM1127.13 153.179H984.476V107.655H1127.13V153.179ZM1147.46 255H984.476C978.221 255 971.387 253.899 963.973 251.698C956.56 249.497 949.667 245.906 943.296 240.925C937.041 235.829 931.771 229.284 927.485 221.291C923.314 213.183 921.229 203.278 921.229 191.579V28.5969C921.229 25.4693 921.809 22.5155 922.967 19.7354C924.125 16.9553 925.689 14.5227 927.658 12.4377C929.743 10.3526 932.176 8.73092 934.956 7.57255C937.736 6.41419 940.748 5.83501 943.991 5.83501H1147.46V51.0113H966.406V191.579C966.406 197.487 967.969 202.004 971.097 205.132C974.225 208.259 978.8 209.823 984.824 209.823H1147.46V255ZM1440.24 235.713C1440.24 238.956 1439.6 241.968 1438.32 244.748C1437.17 247.528 1435.54 249.961 1433.46 252.046C1431.49 254.015 1429.11 255.579 1426.33 256.737C1423.55 257.895 1420.6 258.475 1417.47 258.475C1414.69 258.475 1411.86 257.953 1408.96 256.911C1406.18 255.868 1403.69 254.189 1401.49 251.872L1236.42 79.5071V255H1191.24V25.1218C1191.24 20.4883 1192.52 16.3182 1195.07 12.6114C1197.73 8.78884 1201.09 5.95084 1205.14 4.09746C1209.43 2.35991 1213.83 1.95448 1218.35 2.88117C1222.87 3.69203 1226.75 5.77709 1229.99 9.13635L1395.06 181.327V5.83501H1440.24V235.713Z" fill="url(#paint0_linear_1950_34184)"/>
<path d="M44.1148 107.655H42.4481V109.322H44.1148V107.655ZM202.753 107.655V109.322H204.42V107.655H202.753ZM202.753 5.83501V4.16834H201.086V5.83501H202.753ZM247.929 5.83501H249.596V4.16834H247.929V5.83501ZM247.929 255V256.666H249.596V255H247.929ZM202.753 255H201.086V256.666H202.753V255ZM202.753 153.179H204.42V151.512H202.753V153.179ZM44.1148 153.179V151.512H42.4481V153.179H44.1148ZM44.1148 255V256.666H45.7814V255H44.1148ZM-1.0615 255H-2.72816V256.666H-1.0615V255ZM-1.0615 5.83501V4.16834H-2.72816V5.83501H-1.0615ZM44.1148 5.83501H45.7814V4.16834H44.1148V5.83501ZM44.1148 107.655V109.322H202.753V107.655V105.989H44.1148V107.655ZM202.753 107.655H204.42V5.83501H202.753H201.086V107.655H202.753ZM202.753 5.83501V7.50167H247.929V5.83501V4.16834H202.753V5.83501ZM247.929 5.83501H246.263V255H247.929H249.596V5.83501H247.929ZM247.929 255V253.333H202.753V255V256.666H247.929V255ZM202.753 255H204.42V153.179H202.753H201.086V255H202.753ZM202.753 153.179V151.512H44.1148V153.179V154.846H202.753V153.179ZM44.1148 153.179H42.4481V255H44.1148H45.7814V153.179H44.1148ZM44.1148 255V253.333H-1.0615V255V256.666H44.1148V255ZM-1.0615 255H0.605167V5.83501H-1.0615H-2.72816V255H-1.0615ZM-1.0615 5.83501V7.50167H44.1148V5.83501V4.16834H-1.0615V5.83501ZM44.1148 5.83501H42.4481V107.655H44.1148H45.7814V5.83501H44.1148ZM505.781 153.179V154.846H507.448V153.179H505.781ZM363.129 153.179H361.462V154.846H363.129V153.179ZM363.129 107.655V105.989H361.462V107.655H363.129ZM505.781 107.655H507.448V105.989H505.781V107.655ZM526.111 255V256.666H527.777V255H526.111ZM321.949 240.925L320.896 242.217L320.909 242.228L320.922 242.238L321.949 240.925ZM306.137 221.291L304.655 222.053L304.662 222.066L304.668 222.079L306.137 221.291ZM306.311 12.4377L305.132 11.2592L305.116 11.276L305.099 11.2933L306.311 12.4377ZM526.111 5.83501H527.777V4.16834H526.111V5.83501ZM526.111 51.0113V52.6779H527.777V51.0113H526.111ZM345.058 51.0113V49.3446H343.392V51.0113H345.058ZM526.111 209.823H527.777V208.157H526.111V209.823ZM505.781 153.179V151.512H363.129V153.179V154.846H505.781V153.179ZM363.129 153.179H364.795V107.655H363.129H361.462V153.179H363.129ZM363.129 107.655V109.322H505.781V107.655V105.989H363.129V107.655ZM505.781 107.655H504.115V153.179H505.781H507.448V107.655H505.781ZM526.111 255V253.333H363.129V255V256.666H526.111V255ZM363.129 255V253.333C357.067 253.333 350.394 252.266 343.1 250.1L342.626 251.698L342.151 253.296C349.684 255.532 356.68 256.666 363.129 256.666V255ZM342.626 251.698L343.1 250.1C335.896 247.962 329.189 244.471 322.975 239.612L321.949 240.925L320.922 242.238C327.45 247.342 334.528 251.033 342.151 253.296L342.626 251.698ZM321.949 240.925L323.002 239.633C316.937 234.692 311.801 228.326 307.606 220.503L306.137 221.291L304.668 222.079C309.045 230.241 314.45 236.965 320.896 242.217L321.949 240.925ZM306.137 221.291L307.619 220.529C303.6 212.713 301.549 203.086 301.549 191.579H299.882H298.215C298.215 203.471 300.334 213.652 304.655 222.053L306.137 221.291ZM299.882 191.579H301.549V28.5969H299.882H298.215V191.579H299.882ZM299.882 28.5969H301.549C301.549 25.6807 302.087 22.9456 303.158 20.3764L301.62 19.7354L300.081 19.0944C298.835 22.0854 298.215 25.2579 298.215 28.5969H299.882ZM301.62 19.7354L303.158 20.3764C304.243 17.7731 305.699 15.5132 307.523 13.5821L306.311 12.4377L305.099 11.2933C302.985 13.5323 301.313 16.1376 300.081 19.0944L301.62 19.7354ZM306.311 12.4377L307.489 13.6162C309.417 11.6884 311.666 10.1875 314.25 9.11102L313.609 7.57256L312.968 6.0341C309.991 7.27435 307.375 9.01685 305.132 11.2592L306.311 12.4377ZM313.609 7.57256L314.25 9.11102C316.811 8.04362 319.603 7.50167 322.644 7.50167V5.83501V4.16834C319.197 4.16834 315.966 4.78476 312.968 6.0341L313.609 7.57256ZM322.644 5.83501V7.50167H526.111V5.83501V4.16834H322.644V5.83501ZM526.111 5.83501H524.444V51.0113H526.111H527.777V5.83501H526.111ZM526.111 51.0113V49.3446H345.058V51.0113V52.6779H526.111V51.0113ZM345.058 51.0113H343.392V191.579H345.058H346.725V51.0113H345.058ZM345.058 191.579H343.392C343.392 197.775 345.037 202.776 348.571 206.31L349.75 205.132L350.928 203.953C348.207 201.232 346.725 197.198 346.725 191.579H345.058ZM349.75 205.132L348.571 206.31C352.111 209.85 357.175 211.49 363.476 211.49V209.823V208.157C357.731 208.157 353.644 206.669 350.928 203.953L349.75 205.132ZM363.476 209.823V211.49H526.111V209.823V208.157H363.476V209.823ZM526.111 209.823H524.444V255H526.111H527.777V209.823H526.111ZM615.421 255V256.666H617.087V255H615.421ZM570.245 255H568.578V256.666H570.245V255ZM570.245 5.83501V4.16834H568.578V5.83501H570.245ZM615.421 5.83501H617.087V4.16834H615.421V5.83501ZM615.421 255V253.333H570.245V255V256.666H615.421V255ZM570.245 255H571.911V5.83501H570.245H568.578V255H570.245ZM570.245 5.83501V7.50167H615.421V5.83501V4.16834H570.245V5.83501ZM615.421 5.83501H613.754V255H615.421H617.087V5.83501H615.421ZM881.44 19.3879L882.971 18.7314L882.964 18.7131L882.955 18.695L881.44 19.3879ZM883.003 32.2458L884.65 32.5057L884.651 32.4992L883.003 32.2458ZM877.443 43.5398L876.243 42.3837L876.222 42.4051L876.202 42.4272L877.443 43.5398ZM728.362 209.823L727.121 208.711L724.629 211.49H728.362V209.823ZM881.092 209.823H882.759V208.157H881.092V209.823ZM881.092 255V256.666H882.759V255H881.092ZM665.115 251.351L664.17 252.724L664.195 252.741L664.22 252.757L665.115 251.351ZM656.774 241.447L658.29 240.754L658.282 240.736L658.274 240.718L656.774 241.447ZM654.863 228.763L653.224 228.461L653.22 228.482L653.217 228.503L654.863 228.763ZM660.423 217.295L659.184 216.181L659.18 216.185L660.423 217.295ZM809.853 51.0113L811.092 52.1253L813.591 49.3446H809.853V51.0113ZM656.774 51.0113H655.108V52.6779H656.774V51.0113ZM656.774 5.83501V4.16834H655.108V5.83501H656.774ZM872.926 9.65762L871.981 11.031L872.006 11.0478L872.031 11.0637L872.926 9.65762ZM881.44 19.3879L879.908 20.0444C881.518 23.8014 882.005 27.7711 881.356 31.9923L883.003 32.2458L884.651 32.4992C885.391 27.6852 884.836 23.0829 882.971 18.7314L881.44 19.3879ZM883.003 32.2458L881.357 31.9858C880.714 36.0598 879.011 39.509 876.243 42.3837L877.443 43.5398L878.644 44.6959C881.899 41.3155 883.903 37.2353 884.65 32.5057L883.003 32.2458ZM877.443 43.5398L876.202 42.4272L727.121 208.711L728.362 209.823L729.602 210.936L878.684 44.6524L877.443 43.5398ZM728.362 209.823V211.49H881.092V209.823V208.157H728.362V209.823ZM881.092 209.823H879.425V255H881.092H882.759V209.823H881.092ZM881.092 255V253.333H677.451V255V256.666H881.092V255ZM677.451 255V253.333C673.376 253.333 669.573 252.212 666.01 249.945L665.115 251.351L664.22 252.757C668.302 255.354 672.723 256.666 677.451 256.666V255ZM665.115 251.351L666.059 249.977C662.598 247.598 660.017 244.531 658.29 240.754L656.774 241.447L655.259 242.14C657.239 246.471 660.218 250.006 664.17 252.724L665.115 251.351ZM656.774 241.447L658.274 240.718C656.452 236.967 655.868 233.083 656.509 229.022L654.863 228.763L653.217 228.503C652.468 233.245 653.159 237.818 655.275 242.175L656.774 241.447ZM654.863 228.763L656.502 229.064C657.259 224.954 658.98 221.413 661.667 218.405L660.423 217.295L659.18 216.185C656.074 219.663 654.089 223.768 653.224 228.461L654.863 228.763ZM660.423 217.295L661.663 218.409L811.092 52.1253L809.853 51.0113L808.613 49.8973L659.184 216.181L660.423 217.295ZM809.853 51.0113V49.3446H656.774V51.0113V52.6779H809.853V51.0113ZM656.774 51.0113H658.441V5.83501H656.774H655.108V51.0113H656.774ZM656.774 5.83501V7.50167H860.763V5.83501V4.16834H656.774V5.83501ZM860.763 5.83501V7.50167C864.82 7.50167 868.546 8.66916 871.981 11.031L872.926 9.65762L873.87 8.28421C869.892 5.54926 865.509 4.16834 860.763 4.16834V5.83501ZM872.926 9.65762L872.031 11.0637C875.587 13.3265 878.206 16.3243 879.924 20.0808L881.44 19.3879L882.955 18.695C880.966 14.3429 877.91 10.8539 873.82 8.25151L872.926 9.65762ZM1127.13 153.179V154.846H1128.8V153.179H1127.13ZM984.476 153.179H982.81V154.846H984.476V153.179ZM984.476 107.655V105.989H982.81V107.655H984.476ZM1127.13 107.655H1128.8V105.989H1127.13V107.655ZM1147.46 255V256.666H1149.12V255H1147.46ZM943.296 240.925L942.244 242.217L942.257 242.228L942.27 242.238L943.296 240.925ZM927.485 221.291L926.002 222.053L926.009 222.066L926.016 222.079L927.485 221.291ZM927.658 12.4377L926.48 11.2592L926.463 11.276L926.447 11.2933L927.658 12.4377ZM1147.46 5.83501H1149.12V4.16834H1147.46V5.83501ZM1147.46 51.0113V52.6779H1149.12V51.0113H1147.46ZM966.406 51.0113V49.3446H964.739V51.0113H966.406ZM1147.46 209.823H1149.12V208.157H1147.46V209.823ZM1127.13 153.179V151.512H984.476V153.179V154.846H1127.13V153.179ZM984.476 153.179H986.143V107.655H984.476H982.81V153.179H984.476ZM984.476 107.655V109.322H1127.13V107.655V105.989H984.476V107.655ZM1127.13 107.655H1125.46V153.179H1127.13H1128.8V107.655H1127.13ZM1147.46 255V253.333H984.476V255V256.666H1147.46V255ZM984.476 255V253.333C978.414 253.333 971.742 252.266 964.447 250.1L963.973 251.698L963.499 253.296C971.031 255.532 978.028 256.666 984.476 256.666V255ZM963.973 251.698L964.447 250.1C957.243 247.962 950.537 244.471 944.323 239.612L943.296 240.925L942.27 242.238C948.798 247.342 955.876 251.033 963.499 253.296L963.973 251.698ZM943.296 240.925L944.349 239.633C938.284 234.692 933.148 228.326 928.953 220.503L927.485 221.291L926.016 222.079C930.393 230.241 935.798 236.965 942.244 242.217L943.296 240.925ZM927.485 221.291L928.967 220.529C924.947 212.713 922.896 203.086 922.896 191.579H921.229H919.563C919.563 203.471 921.682 213.652 926.002 222.053L927.485 221.291ZM921.229 191.579H922.896V28.5969H921.229H919.563V191.579H921.229ZM921.229 28.5969H922.896C922.896 25.6807 923.435 22.9456 924.505 20.3764L922.967 19.7354L921.429 19.0944C920.182 22.0854 919.563 25.2579 919.563 28.5969H921.229ZM922.967 19.7354L924.505 20.3764C925.59 17.7731 927.046 15.5132 928.87 13.5821L927.658 12.4377L926.447 11.2933C924.332 13.5323 922.661 16.1376 921.429 19.0944L922.967 19.7354ZM927.658 12.4377L928.837 13.6162C930.765 11.6884 933.014 10.1875 935.597 9.11102L934.956 7.57256L934.315 6.0341C931.338 7.27435 928.722 9.01685 926.48 11.2592L927.658 12.4377ZM934.956 7.57256L935.597 9.11102C938.159 8.04362 940.951 7.50167 943.991 7.50167V5.83501V4.16834C940.545 4.16834 937.313 4.78476 934.315 6.0341L934.956 7.57256ZM943.991 5.83501V7.50167H1147.46V5.83501V4.16834H943.991V5.83501ZM1147.46 5.83501H1145.79V51.0113H1147.46H1149.12V5.83501H1147.46ZM1147.46 51.0113V49.3446H966.406V51.0113V52.6779H1147.46V51.0113ZM966.406 51.0113H964.739V191.579H966.406H968.072V51.0113H966.406ZM966.406 191.579H964.739C964.739 197.775 966.385 202.776 969.919 206.31L971.097 205.132L972.276 203.953C969.554 201.232 968.072 197.198 968.072 191.579H966.406ZM971.097 205.132L969.919 206.31C973.458 209.85 978.522 211.49 984.824 211.49V209.823V208.157C979.078 208.157 974.991 206.669 972.276 203.953L971.097 205.132ZM984.824 209.823V211.49H1147.46V209.823V208.157H984.824V209.823ZM1147.46 209.823H1145.79V255H1147.46H1149.12V209.823H1147.46ZM1438.32 244.748L1436.81 244.054L1436.8 244.08L1436.79 244.107L1438.32 244.748ZM1408.96 256.911L1408.37 258.471L1408.38 258.475L1408.39 258.479L1408.96 256.911ZM1401.49 251.872L1402.7 250.724L1402.69 250.719L1401.49 251.872ZM1236.42 79.5071L1237.62 78.3543L1234.75 75.357V79.5071H1236.42ZM1236.42 255V256.666H1238.09V255H1236.42ZM1191.24 255H1189.58V256.666H1191.24V255ZM1195.07 12.6114L1193.7 11.6584L1193.69 11.6672L1195.07 12.6114ZM1205.14 4.09746L1204.52 2.55289L1204.49 2.56655L1204.45 2.58167L1205.14 4.09746ZM1218.35 2.88117L1218.02 4.51385L1218.04 4.51798L1218.06 4.52162L1218.35 2.88117ZM1229.99 9.13634L1231.2 7.98298L1231.19 7.97869L1229.99 9.13634ZM1395.06 181.327L1393.86 182.481L1396.73 185.474V181.327H1395.06ZM1395.06 5.83501V4.16834H1393.39V5.83501H1395.06ZM1440.24 5.83501H1441.9V4.16834H1440.24V5.83501ZM1440.24 235.713H1438.57C1438.57 238.731 1437.98 241.504 1436.81 244.054L1438.32 244.748L1439.84 245.442C1441.22 242.431 1441.9 239.181 1441.9 235.713H1440.24ZM1438.32 244.748L1436.79 244.107C1435.71 246.69 1434.21 248.939 1432.28 250.867L1433.46 252.046L1434.64 253.224C1436.88 250.982 1438.62 248.366 1439.86 245.389L1438.32 244.748ZM1433.46 252.046L1432.28 250.867C1430.48 252.67 1428.29 254.117 1425.69 255.199L1426.33 256.737L1426.98 258.276C1429.94 257.04 1432.5 255.359 1434.64 253.224L1433.46 252.046ZM1426.33 256.737L1425.69 255.199C1423.12 256.269 1420.39 256.808 1417.47 256.808V258.475V260.141C1420.81 260.141 1423.98 259.522 1426.98 258.276L1426.33 256.737ZM1417.47 258.475V256.808C1414.91 256.808 1412.26 256.327 1409.52 255.343L1408.96 256.911L1408.39 258.479C1411.45 259.58 1414.48 260.141 1417.47 260.141V258.475ZM1408.96 256.911L1409.54 255.35C1407.02 254.403 1404.74 252.872 1402.7 250.724L1401.49 251.872L1400.28 253.02C1402.64 255.505 1405.34 257.334 1408.37 258.471L1408.96 256.911ZM1401.49 251.872L1402.69 250.719L1237.62 78.3543L1236.42 79.5071L1235.22 80.6598L1400.28 253.025L1401.49 251.872ZM1236.42 79.5071H1234.75V255H1236.42H1238.09V79.5071H1236.42ZM1236.42 255V253.333H1191.24V255V256.666H1236.42V255ZM1191.24 255H1192.91V25.1218H1191.24H1189.58V255H1191.24ZM1191.24 25.1218H1192.91C1192.91 20.8147 1194.09 16.9759 1196.44 13.5557L1195.07 12.6114L1193.69 11.6672C1190.95 15.6606 1189.58 20.162 1189.58 25.1218H1191.24ZM1195.07 12.6114L1196.43 13.5644C1198.94 9.97482 1202.07 7.33699 1205.84 5.61325L1205.14 4.09746L1204.45 2.58167C1200.11 4.5647 1196.53 7.60287 1193.7 11.6585L1195.07 12.6114ZM1205.14 4.09746L1205.77 5.64202C1209.75 4.02761 1213.82 3.65341 1218.02 4.51385L1218.35 2.88117L1218.69 1.2485C1213.84 0.255547 1209.11 0.692207 1204.52 2.55289L1205.14 4.09746ZM1218.35 2.88117L1218.06 4.52162C1222.22 5.26945 1225.79 7.18204 1228.79 10.294L1229.99 9.13634L1231.19 7.97869C1227.71 4.37214 1223.51 2.1146 1218.64 1.24072L1218.35 2.88117ZM1229.99 9.13634L1228.79 10.2897L1393.86 182.481L1395.06 181.327L1396.26 180.174L1231.2 7.98299L1229.99 9.13634ZM1395.06 181.327H1396.73V5.83501H1395.06H1393.39V181.327H1395.06ZM1395.06 5.83501V7.50167H1440.24V5.83501V4.16834H1395.06V5.83501ZM1440.24 5.83501H1438.57V235.713H1440.24H1441.9V5.83501H1440.24Z" fill="white" mask="url(#path-1-outside-1_1950_34184)"/>
</g>
<defs>
<linearGradient id="paint0_linear_1950_34184" x1="719.5" y1="2.82285" x2="719.5" y2="254.753" gradientUnits="userSpaceOnUse">
<stop stop-color="white"/>
<stop offset="1" stop-color="#222222"/>
</linearGradient>
</defs>
</svg>
