<svg width="145" height="40" viewBox="0 0 145 40" fill="none" xmlns="http://www.w3.org/2000/svg">
<path d="M7.69531 21.3911L7.73926 21.3472V31.8286L7.69531 31.8726V32.3052L0 40.0005V7.87061H7.69531V21.3911ZM29.0859 31.8813H21.5439V18.0239L21.543 18.0249V7.54346L21.5439 7.54248V7.5415L29.0859 -0.000488281V31.8813ZM19.7363 19.8315L9.5918 29.9761V19.4946L19.7363 9.3501V19.8315Z" fill="url(#paint0_linear_1950_34315)"/>
<path d="M41.7898 17.9472H53.1788V10.6373H56.4221V28.5254H53.1788V21.2155H41.7898V28.5254H38.5464V10.6373H41.7898V17.9472ZM74.934 21.2155H64.6926V17.9472H74.934V21.2155ZM76.3935 28.5254H64.6926C64.2435 28.5254 63.7528 28.4464 63.2206 28.2884C62.6884 28.1304 62.1935 27.8726 61.7362 27.515C61.2871 27.1491 60.9087 26.6792 60.601 26.1054C60.3016 25.5232 60.1519 24.8122 60.1519 23.9723V12.2714C60.1519 12.0468 60.1935 11.8348 60.2767 11.6352C60.3598 11.4356 60.4721 11.261 60.6135 11.1113C60.7632 10.9616 60.9378 10.8452 61.1374 10.762C61.337 10.6788 61.5532 10.6373 61.7861 10.6373H76.3935V13.8806H63.3952V23.9723C63.3952 24.3964 63.5075 24.7207 63.732 24.9453C63.9566 25.1698 64.2851 25.2821 64.7175 25.2821H76.3935V28.5254ZM82.8052 28.5254H79.5619V10.6373H82.8052V28.5254ZM101.903 11.6102C102.028 11.9013 102.066 12.209 102.016 12.5333C101.966 12.8494 101.833 13.1196 101.616 13.3442L90.9135 25.2821H101.878V28.5254H87.2586C86.9425 28.5254 86.6473 28.4381 86.3729 28.2634C86.1068 28.0805 85.9072 27.8435 85.7741 27.5524C85.6327 27.2613 85.587 26.9578 85.6369 26.6418C85.6951 26.3258 85.8282 26.0513 86.0361 25.8185L96.764 13.8806H85.7741V10.6373H100.419C100.735 10.6373 101.026 10.7287 101.292 10.9117C101.567 11.0863 101.77 11.3192 101.903 11.6102ZM119.542 21.2155H109.301V17.9472H119.542V21.2155ZM121.002 28.5254H109.301C108.852 28.5254 108.361 28.4464 107.829 28.2884C107.296 28.1304 106.802 27.8726 106.344 27.515C105.895 27.1491 105.517 26.6792 105.209 26.1054C104.91 25.5232 104.76 24.8122 104.76 23.9723V12.2714C104.76 12.0468 104.802 11.8348 104.885 11.6352C104.968 11.4356 105.08 11.261 105.222 11.1113C105.371 10.9616 105.546 10.8452 105.745 10.762C105.945 10.6788 106.161 10.6373 106.394 10.6373H121.002V13.8806H108.003V23.9723C108.003 24.3964 108.116 24.7207 108.34 24.9453C108.565 25.1698 108.893 25.2821 109.326 25.2821H121.002V28.5254ZM142.021 27.1407C142.021 27.3736 141.975 27.5898 141.883 27.7894C141.8 27.989 141.684 28.1636 141.534 28.3133C141.393 28.4547 141.222 28.567 141.023 28.6501C140.823 28.7333 140.611 28.7749 140.387 28.7749C140.187 28.7749 139.983 28.7375 139.775 28.6626C139.576 28.5878 139.397 28.4672 139.239 28.3009L127.388 15.9264V28.5254H124.145V12.0219C124.145 11.6893 124.237 11.3899 124.419 11.1238C124.611 10.8493 124.852 10.6456 125.143 10.5125C125.451 10.3878 125.767 10.3587 126.091 10.4252C126.415 10.4834 126.694 10.6331 126.927 10.8743L138.777 23.2363V10.6373H142.021V27.1407Z" fill="white"/>
<defs>
<linearGradient id="paint0_linear_1950_34315" x1="14.543" y1="1.03929" x2="14.543" y2="47.279" gradientUnits="userSpaceOnUse">
<stop stop-color="#D9D9D9"/>
<stop offset="1" stop-color="#737373"/>
</linearGradient>
</defs>
</svg>
